<?xml version="1.0" encoding="iso-8859-1"?>
<!-- Generator: Adobe Illustrator 21.0.0, SVG Export Plug-In . SVG Version: 6.00 Build 0)  -->
<svg xmlns="http://www.w3.org/2000/svg" xmlns:xlink="http://www.w3.org/1999/xlink" version="1.1" id="Capa_1" x="0px" y="0px" viewBox="0 0 512 512" style="enable-background:new 0 0 512 512;" xml:space="preserve" width="512" height="512">
<g>
	<path d="M497,0c-8.284,0-15,6.716-15,15v81.4H304.2c-8.284,0-15,6.716-15,15v96.4c0,8.284,6.716,15,15,15H400.6   c8.284,0,15-6.716,15-15s-6.716-15-15-15H319.2v-66.4H482v259.2H207.8c-8.284,0-15,6.716-15,15s6.716,15,15,15H482V482H126.4V319.2   h274.2c8.284,0,15-6.716,15-15s-6.716-15-15-15H126.4V111.4c0-8.284-6.716-15-15-15s-15,6.716-15,15V497c0,8.284,6.716,15,15,15   H497c8.284,0,15-6.716,15-15V15C512,6.716,505.284,0,497,0z"/>
	<path d="M192.8,207.8c0,8.284,6.716,15,15,15s15-6.716,15-15V30h177.8c8.284,0,15-6.716,15-15s-6.716-15-15-15H15   C6.716,0,0,6.716,0,15v482c0,8.284,6.716,15,15,15s15-6.716,15-15V30h162.8V207.8z"/>
</g>















</svg>
